<svg id="Layer_1" data-name="Layer 1" xmlns="http://www.w3.org/2000/svg" width="64" height="64" viewBox="0 0 64 64"><defs><style>.cls-1{fill:#1d1d1b;}.cls-2{fill:#4eae4d;}.cls-3{fill:#85bfe9;}</style></defs><title>earth</title><g id="earth"><path class="cls-1" d="M18.68,10.74A26.51,26.51,0,0,1,29.93,7.21C34.18,7,38.08,8,43.49,10.59s8.41,5.06,10.69,9.31,3.53,7.38,2.28,12.91S54.83,43.9,52.61,47.74s-5.94,6.5-11.44,7.88S27.86,57.9,21.11,54.18,9.61,44.93,7.86,37.28s-.31-11.63,1-15.22A23.64,23.64,0,0,1,18.68,10.74Z"/><path class="cls-2" d="M20.55,11.31a22.87,22.87,0,0,1,7.69-2.59c4-.47,10.47,1.31,11.16,1.63s1.25.5,1,.69-2.53,2.19-3.34,2.31-3.62-.56-5.75-.47-3.56.5-4.59.5-2.5-1.12-3.5-1.22S20.08,11.56,20.55,11.31Z"/><path class="cls-3" d="M18.58,12.87a5.77,5.77,0,0,1,4.16.34c1.62.88,1.44,1.25,3.66,1.22s3.28-.41,3.94-.25,3.41,1.34,5.84.88a10.37,10.37,0,0,0,4.28-1.75c.72-.47,1.16-1.25,1.59-1.19s4.41,2.41,4.34,2.66a4.45,4.45,0,0,1-1.72,1.5,7.42,7.42,0,0,0-2.78,3.47c-.5,1.47-.78,5.88-.12,6.31s2.34-.19,3,.31.81,2.06,1.91,2.19,1.56-.69,2.56,0,1,1.22,2.56,1.25,3-.31,3.09,0a2.58,2.58,0,0,1-.12,1.44c-.16.09-5.44.72-6.69.78s-1,.34-1.69,0S44.61,30.4,43,30.15s-6.53-.56-7.5-.56-1.25,0-1.34.47.09,5.19-.41,6.72-.16,4.06,1.66,4.78,3.69,1.09,3.94,1.75,1.13,5,1.91,6.47,1.88,3.16,1.5,3.47a20.48,20.48,0,0,1-6,1.53,23.29,23.29,0,0,1-5.78,0s-1.16-6-1.47-6.53a4.72,4.72,0,0,1-.41-2.34c.13-.41,2.34-4.87,2.06-6s-.72-2.28-1.75-2.56-2.75,0-5.53,0a28.45,28.45,0,0,1-5.34-.44c-.56-.12-.87,0-1.12-.28s-2.28-4-2-4.34,3.12-1.16,3.25-1.81-.06-2.25.66-2.31,3.87.38,4.87-.16,1.12-1.75,1.16-2.81-.37-3.41-.84-3.84-5-1.81-6.72-2.72S14.61,17,14.8,16.4A12.31,12.31,0,0,1,18.58,12.87Z"/><path class="cls-1" d="M20.49,15c.54-.08.59.34.41.72s0,1.72.59,1.69a56,56,0,0,1,6.41-1.06,26.37,26.37,0,0,1,8,1.66c.75.41,1.09,2,1.16,2.47A29.09,29.09,0,0,1,34.3,26c-.28.16-3.19-1-5.28-2s-3-1.47-3.09-1.87-.31-1.59-.5-1.69-3-.28-4.34-1.09-2.56-2.12-2.31-2.69S20.05,15,20.49,15Z"/><path class="cls-2" d="M24.36,17.87a20.66,20.66,0,0,1,7.25.31c3.19.63,3.69,1.16,3.59,1.94s-1.28,4-1.72,3.84a42.9,42.9,0,0,1-5.31-2.19c-.22-.31-.28-1.87-1.22-2.16s-2.87-.87-3.53-1.12-.5-.5-.34-.5S24.36,17.87,24.36,17.87Z"/><path class="cls-2" d="M47.58,15.21c.21-.07,2.94,1.06,4.81,4.63s2.47,7.94,2.25,8.34-.91.44-1.53.25S50,26.87,49.46,26.87s-1.41.47-1.78,0S46.18,25,45.05,25s-1.37.19-1.56-.06-.81-5.53.37-6.5,2.22-1.59,2.69-2S47.3,15.31,47.58,15.21Z"/><path class="cls-2" d="M35.71,31c.37,0,5.72-.41,6.78.63s1.94,2.16,2.84,2.13,9.19-.75,9.19-.44-.94,7.5-2.37,11.16a16.07,16.07,0,0,1-5.53,7.06c-1.16.66-2.34.91-2.44.72a22.18,22.18,0,0,1-2.28-5.94c-.69-3.22-.87-4.72-1.94-5s-3.69-.91-4.19-1.53a4,4,0,0,1-.56-1.87s.28-3.87.28-4.72S35.52,31,35.71,31Z"/><path class="cls-2" d="M17.43,38.21a12.88,12.88,0,0,0,4.84.91c3.31.06,6.56-.31,6.91.09s.28,1.78-.44,3.09a21.44,21.44,0,0,0-1.19,2.59,25.85,25.85,0,0,0-3.16-2.5.58.58,0,0,0-.34.69c.13.28,3,2.22,3.13,2.47a9.48,9.48,0,0,1-.09,1.75,26.48,26.48,0,0,0-3-2.37c-.37-.06-.62.84-.5,1s3.53,2.5,4,2.91a6.24,6.24,0,0,1,.84,2.53c-.09,0-3.91-3.09-4.12-3.12s-.28,1-.28,1,4.5,3.19,4.66,3.44a6.8,6.8,0,0,1,.44,1.88,30.39,30.39,0,0,1-3.59-.91c-1.25-.47-2.34-.72-2.34-.81S22,49.06,20.36,47.46A13,13,0,0,1,18,44.81a32.35,32.35,0,0,1-.34-3.72C17.61,40.24,17.24,38.21,17.43,38.21Z"/><path class="cls-3" d="M10.52,38.4c.19-.37,2.56.25,3.69.69s1.5,1,1.53,1.88-.12,4.66.66,5.34a10.88,10.88,0,0,1,3.06,3.28,7.31,7.31,0,0,1,1,2.19,20,20,0,0,1-5.91-5.5C11.36,42.15,10.43,38.59,10.52,38.4Z"/><path class="cls-2" d="M9.61,36.18a17.7,17.7,0,0,1-.12-9.66c1.37-5.69,4-8.72,4.22-8.69s5.41,3,7.5,4,2.22,1,2.38,1.44a10.33,10.33,0,0,1-.19,3.34c-.19.09-3.94-.09-5,0S17,28.21,17.08,28.81s.13.88-.12,1.06-3.59,1.09-3.78,2,2.38,5.38,2,5.5S10.61,37.21,9.61,36.18Z"/><path class="cls-1" d="M11.36,25.18a19,19,0,0,1,1.16-3.66c.5-.75.72-.91.94-.84s.84.34.78.53-1.12,2.25-1.41,3.16,0,.91-.41,1S11.49,25.4,11.36,25.18Z"/><path class="cls-1" d="M40,15.59c.16-.13,2.53-.72,2.69-.5s.34.44.19.56a12,12,0,0,1-2.62.94C40.05,16.49,39.8,15.74,40,15.59Z"/><path class="cls-1" d="M38.46,22.93c.16.16,1.47,2.28,1.31,2.47s0,.47-.34.31a6.31,6.31,0,0,1-1.53-2.22C38,23.24,38.46,22.93,38.46,22.93Z"/><path class="cls-1" d="M37,24.37a11.87,11.87,0,0,1,1.72,2.09c0,.19,0,.47-.31.38A8.1,8.1,0,0,1,36.55,25C36.55,24.84,37,24.34,37,24.37Z"/><path class="cls-1" d="M49.33,19.65a7.2,7.2,0,0,1,2.5,1.22c0,.19.09.69-.16.59s-2.53-1-2.62-1.12S49.3,19.68,49.33,19.65Z"/><path class="cls-1" d="M49.11,22c.08-.1,4,2.19,4,2.53s.34.59-.06.53a30,30,0,0,1-4.25-2.16C48.68,22.71,49,22.15,49.11,22Z"/><path class="cls-1" d="M48.74,24a25.91,25.91,0,0,1,4.84,2.63c.06.28.28.59-.12.56a40.34,40.34,0,0,1-4.94-2.37A1,1,0,0,1,48.74,24Z"/><path class="cls-1" d="M49.68,35.53a13.19,13.19,0,0,1,2.91,2.78c-.09.25,0,.38-.28.28a22.69,22.69,0,0,1-3.12-2.72C49.24,35.71,49.52,35.59,49.68,35.53Z"/><path class="cls-1" d="M48.11,37.43a28.82,28.82,0,0,1,3.34,3.16c0,.25-.12.47-.25.44a39.76,39.76,0,0,1-3.44-3A5.08,5.08,0,0,1,48.11,37.43Z"/><path class="cls-1" d="M47.11,39.46a23.51,23.51,0,0,1,3.34,3.31c-.06.25.06.41-.25.38A40.48,40.48,0,0,1,46.68,40S47.05,39.46,47.11,39.46Z"/><path class="cls-1" d="M46.33,41.12a28.92,28.92,0,0,1,3.41,3.28c0,.25-.09.41-.22.31a47.48,47.48,0,0,1-3.84-3.09A.86.86,0,0,1,46.33,41.12Z"/><path class="cls-1" d="M45.71,44.12a16.07,16.07,0,0,1,3.06,2.72c0,.22-.16.38-.25.34a33.89,33.89,0,0,1-3.19-2.5C45.3,44.49,45.64,44.15,45.71,44.12Z"/><path class="cls-1" d="M45,45.93c.17,0,3.25,2.69,3,2.94s-.12.38-.37.28a22.57,22.57,0,0,1-3.12-2.69C44.61,46.31,44.83,45.93,45,45.93Z"/><path class="cls-1" d="M35.18,43.43c.09-.14,1.31.31,1.28.59s0,.34-.16.34a5.2,5.2,0,0,1-1.53-.44C34.77,43.81,35.11,43.53,35.18,43.43Z"/><path class="cls-1" d="M33.14,47.28a1.45,1.45,0,0,1,1.16,0c.47.22,1.16,1,1.78,1.09s1.09-.28,1.25-.19a.36.36,0,0,1,.16.47c-.09.16-.16.31-.41.38a2.06,2.06,0,0,1-1.5-.16C35,48.49,34.64,48,34,48s-.56.13-.69,0S32.89,47.49,33.14,47.28Z"/><path class="cls-1" d="M26,40.15c.25.16,2.06,1.75,2,2s-.19.5-.37.44a10.2,10.2,0,0,1-2.16-1.81C25.46,40.53,26,40.15,26,40.15Z"/><path class="cls-1" d="M24.21,30.43c.13,0,2.81,4.19,2.59,4.41s-.34.44-.47.31a44.93,44.93,0,0,1-2.84-4.34A1.34,1.34,0,0,1,24.21,30.43Z"/><path class="cls-1" d="M25.24,30c0-.11.59-.37.78-.19a12.36,12.36,0,0,1,1.37,2.72c-.09.19,0,.47-.25.28A17.17,17.17,0,0,1,25.24,30Z"/><path class="cls-1" d="M30.74,29.71c.08-.12,1-1,1.28-1s1,0,.91.22-1.41,1.91-1.66,1.75A1.68,1.68,0,0,1,30.74,29.71Z"/></g></svg>